# xmcd CD database file
#
# Track frame offsets:
#	150
#	12657
#	55726
#	98558
#	131696
#	170186
#	201565
#	243980
#	287690
#
# Disc length: 4009 seconds
#
# Revision: 0
# Processed by: cddbd v1.5.1PL0 Copyright (c) Steve Scherf et al.
# Submitted via: CDex 1.51
#
DISCID=840fa709
DTITLE=Franco D'Andrea Quartet and "Eleven" - Combinazione 1
DYEAR=2000
DGENRE=Jazz
TTITLE0=Combinazione 1 (intro)
TTITLE1=Ojos
TTITLE2=Some More March
TTITLE3=Barossa
TTITLE4=Slow Five
TTITLE5=Combinazione 1
TTITLE6=Into the Mistery
TTITLE7=Datiles
TTITLE8=Combinazione 1 (intro)
EXTD=YEAR: 2000
EXTT0=
EXTT1=
EXTT2=
EXTT3=
EXTT4=
EXTT5=
EXTT6=
EXTT7=
EXTT8=
PLAYORDER=
